#!OML:ASF H:\ManfredETheater\Project 1\Capture day 1\Session 1\subject.ASF
:FULLY-SPECIFIED
:DEGREES
48
root 1.61931 15.5239 27.5085 -151.594 -2.48489 181.312
lowerback 16.0355 0.707644 2.96538
upperback -0.44771 1.57677 2.7365
thorax -9.5135 0.60455 0.915345
lowerneck -18.5207 -2.78134 -4.3103
upperneck -2.99959 -3.7175 1.53745
head 2.33726 -2.14155 0.964036
rclavicle 1.66979e-014 4.53229e-014
rhumerus -31.3433 11.6441 -89.0096
rradius 112.198
rwrist -16.8379
rhand -26.5449 9.00411
rfingers 7.12502
rthumb 0.0194991 -20.9756
lclavicle 1.66979e-014 4.53229e-014
lhumerus -65.1429 -15.6825 96.4188
lradius 99.2786
lwrist 15.5265
lhand -24.2955 -9.09141
lfingers 7.12502
lthumb 2.19198 20.8771
rfemur -24.1365 -3.32453 25.6765
rtibia 51.7132
rfoot -28.1675 -9.92947
rtoes -39.5492
lfemur -67.962 4.44533 -19.5978
ltibia 100.549
lfoot -10.2798 -5.53304
ltoes 4.03334
49
root 1.62424 15.5765 26.9771 -151.501 -2.59728 181.243
lowerback 15.6835 0.977061 3.0247
upperback -0.50334 1.92725 2.51102
thorax -9.36219 0.771937 0.557562
lowerneck -18.4 -3.16663 -4.47193
upperneck -2.94332 -4.18167 1.72756
head 2.35928 -2.35513 1.0196
rclavicle -1.78906e-014 -4.69132e-014
rhumerus -30.544 12.414 -88.635
rradius 115.106
rwrist -16.4743
rhand -26.2949 10.059
rfingers 7.12502
rthumb 0.260946 -19.9206
lclavicle -1.78906e-014 -4.69132e-014
lhumerus -67.6229 -16.1347 96.2226
lradius 101.236
lwrist 16.2283
lhand -23.5462 -9.04053
lfingers 7.12502
lthumb 2.9156 20.9193
rfemur -21.1203 -3.04737 25.4258
rtibia 48.8439
rfoot -25.8162 -8.67282
rtoes -39.8421
lfemur -70.4706 4.17033 -19.9737
ltibia 99.2806
lfoot -11.4201 -6.32594
ltoes 2.76222
50
root 1.62765 15.6365 26.4349 -151.444 -2.81285 181.153
lowerback 15.3296 1.21431 3.08641
upperback -0.545513 2.23502 2.31778
thorax -9.19292 0.919557 0.248002
lowerneck -18.2875 -3.53774 -4.63094
upperneck -2.83853 -4.62293 1.8885
head 2.39971 -2.55716 1.06637
rclavicle 2.78299e-015 1.43125e-014
rhumerus -29.8307 13.1369 -88.1194
rradius 117.69
rwrist -15.9052
rhand -26.0936 11.1557
rfingers 7.12502
rthumb 0.455298 -18.8235
lclavicle 2.78299e-015 1.43125e-014
lhumerus -69.8759 -16.4022 95.9866
lradius 102.912
lwrist 16.5741
lhand -22.8759 -8.96848
lfingers 7.12502
lthumb 3.56294 20.9815
rfemur -18.0604 -2.76534 25.2024
rtibia 45.8188
rfoot -22.7729 -7.24426
rtoes -39.8297
lfemur -72.6645 3.75685 -20.2816
ltibia 97.5629
lfoot -12.4726 -7.20982
ltoes 1.70235
51
root 1.62926 15.703 25.8828 -151.439 -3.12329 181.059
lowerback 15.0032 1.40895 3.16217
upperback -0.569562 2.48912 2.15843
thorax -9.01851 1.04121 -0.0171135
lowerneck -18.1903 -3.87672 -4.77359
upperneck -2.69559 -5.02208 2.02854
head 2.45512 -2.73843 1.106
rclavicle -1.59028e-014 -1.98785e-014
rhumerus -29.195 13.8196 -87.5158
rradius 119.909
rwrist -15.2004
rhand -25.971 12.1984
rfingers 7.12502
rthumb 0.573747 -17.7806
lclavicle -1.59028e-014 -1.98785e-014
lhumerus -71.8876 -16.4507 95.6948
lradius 104.314
lwrist 16.6142
lhand -22.2851 -8.88991
lfingers 7.12502
lthumb 4.13347 21.0497
rfemur -14.9621 -2.46197 25.0223
rtibia 42.6363
rfoot -18.8436 -5.76971
rtoes -39.4798
lfemur -74.51 3.25085 -20.5165
ltibia 95.432
lfoot -13.4279 -8.16637
ltoes 0.870587
52
root 1.62878 15.7742 25.3219 -151.492 -3.51221 180.987
lowerback 14.7132 1.55843 3.27099
upperback -0.570767 2.68921 2.03413
thorax -8.83921 1.13563 -0.248679
lowerneck -18.1153 -4.17251 -4.89237
upperneck -2.52389 -5.36732 2.15769
head 2.52281 -2.89318 1.14133
rclavicle -2.14687e-014 1.98785e-014
rhumerus -28.639 14.4616 -86.8736
rradius 121.732
rwrist -14.474
rhand -25.9329 13.1066
rfingers 7.12502
rthumb 0.610571 -16.8723
lclavicle -2.14687e-014 1.98785e-014
lhumerus -73.6354 -16.2783 95.3398
lradius 105.456
lwrist 16.4318
lhand -21.7857 -8.8072
lfingers 7.12502
lthumb 4.61574 21.1225
rfemur -11.8292 -2.1073 24.9069
rtibia 39.2744
rfoot -13.8156 -4.48844
rtoes -38.6133
lfemur -75.9963 2.70788 -20.6821
ltibia 92.9308
lfoot -14.3012 -9.14904
ltoes 0.149041
53
root 1.6261 15.8433 24.7552 -151.598 -3.95937 180.952
lowerback 14.4606 1.667 3.42329
upperback -0.548022 2.84219 1.94146
thorax -8.65447 1.20561 -0.458931
lowerneck -18.0662 -4.42532 -4.98472
upperneck -2.33129 -5.66038 2.2812
head 2.60053 -3.02235 1.1735
rclavicle -4.13472e-014 -2.62396e-014
rhumerus -28.1578 15.0584 -86.2286
rradius 123.137
rwrist -13.8537
rhand -25.9693 13.7975
rfingers 7.12502
rthumb 0.575391 -16.1814
lclavicle -4.13472e-014 -2.62396e-014
lhumerus -75.0942 -15.9142 94.9243
lradius 106.366
lwrist 16.1259
lhand -21.3581 -8.70959
lfingers 7.12502
lthumb 5.02859 21.2107
rfemur -8.67779 -1.68809 24.8765
rtibia 35.7552
rfoot -7.74024 -3.73433
rtoes -36.9871
lfemur -77.1664 2.17151 -20.7944
ltibia 90.1382
lfoot -15.1013 -10.1156
ltoes -0.520188
54
root 1.62172 15.9143 24.182 -151.742 -4.44709 180.963
lowerback 14.2396 1.74371 3.62302
upperback -0.507382 2.9605 1.87646
thorax -8.46744 1.257 -0.657807
lowerneck -18.0551 -4.64112 -5.05613
upperneck -2.11537 -5.90796 2.40454
head 2.69178 -3.12907 1.2045
rclavicle 4.53229e-014 5.725e-014
rhumerus -27.7502 15.596 -85.6118
rradius 124.098
rwrist -13.439
rhand -26.0696 14.2285
rfingers 7.12502
rthumb 0.478485 -15.7507
lclavicle 4.53229e-014 5.725e-014
lhumerus -76.2397 -15.4113 94.4651
lradius 107.073
lwrist 15.7954
lhand -20.9965 -8.53966
lfingers 7.12502
lthumb 5.37777 21.3721
rfemur -5.5386 -1.18481 24.953
rtibia 32.1088
rfoot -0.894581 -3.77683
rtoes -34.5926
lfemur -78.0113 1.67972 -20.8723
ltibia 87.0767
lfoot -15.8271 -11.0365
ltoes -1.09839
55
root 1.61639 15.9805 23.6062 -151.903 -4.95375 181.024
lowerback 14.046 1.80206 3.86126
upperback -0.456149 3.06063 1.83698
thorax -8.28379 1.29819 -0.846651
lowerneck -18.0783 -4.83105 -5.12093
upperneck -1.88396 -6.12276 2.52923
head 2.79413 -3.21971 1.23646
rclavicle -3.4191e-014 -2.38542e-015
rhumerus -27.43 16.0544 -85.0395
rradius 124.617
rwrist -13.3332
rhand -26.201 14.403
rfingers 7.12502
rthumb 0.351579 -15.5765
lclavicle -3.4191e-014 -2.38542e-015
lhumerus -77.0518 -14.8343 93.9946
lradius 107.613
lwrist 15.5233
lhand -20.6807 -8.26435
lfingers 7.12502
lthumb 5.68259 21.6394
rfemur -2.47686 -0.572337 25.1562
rtibia 28.4547
rfoot 6.18496 -4.57156
rtoes -31.4655
lfemur -78.5883 1.26257 -20.9446
ltibia 83.825
lfoot -16.4855 -11.8756
ltoes -1.68823
56
root 1.61117 16.0418 23.0296 -152.074 -5.46624 181.126
lowerback 13.888 1.85269 4.12504
upperback -0.394655 3.15477 1.81852
thorax -8.10862 1.3355 -1.02618
lowerneck -18.1368 -5.00701 -5.19065
upperneck -1.64898 -6.31934 2.65677
head 2.90463 -3.30185 1.27077
rclavicle -2.38542e-015 1.27222e-014
rhumerus -27.1985 16.4133 -84.5338
rradius 124.689
rwrist -13.5417
rhand -26.3364 14.3237
rfingers 7.12502
rthumb 0.220843 -15.656
lclavicle -2.38542e-015 1.27222e-014
lhumerus -77.5067 -14.2464 93.5438
lradius 108.015
lwrist 15.3721
lhand -20.3997 -7.88529
lfingers 7.12502
lthumb 5.95392 22.0111
rfemur 0.450197 0.142971 25.4983
rtibia 24.9411
rfoot 12.7537 -5.77766
rtoes -28.1041
lfemur -78.9115 0.93882 -21.0426
ltibia 80.4305
lfoot -17.057 -12.6081
ltoes -2.29208
57
root 1.60727 16.0976 22.4545 -152.234 -5.96584 181.271
lowerback 13.7688 1.90842 4.40262
upperback -0.330914 3.25882 1.81782
thorax -7.95211 1.37688 -1.197
lowerneck -18.2251 -5.17811 -5.27761
upperneck -1.42885 -6.50883 2.79092
head 3.01696 -3.38136 1.31019
rclavicle 4.77083e-015 1.35174e-014
rhumerus -27.0728 16.6505 -84.1208
rradius 124.322
rwrist -14.0139
rhand -26.4432 14.029
rfingers 7.12502
rthumb 0.117727 -15.9507
lclavicle 4.77083e-015 1.35174e-014
lhumerus -77.5978 -13.6951 93.1469
lradius 108.307
lwrist 15.3649
lhand -20.1659 -7.42256
lfingers 7.12502
lthumb 6.17964 22.4673
rfemur 3.10765 0.930106 25.9846
rtibia 21.8554
rfoot 18.1404 -6.92849
rtoes -24.9784
lfemur -79.0157 0.736491 -21.1928
ltibia 76.9573
lfoot -17.5334 -13.2054
ltoes -3.0453
